<svg xmlns="http://www.w3.org/2000/svg" xmlns:xlink="http://www.w3.org/1999/xlink" width="2000" zoomAndPan="magnify" viewBox="0 0 1500 1499.999933" height="2000" preserveAspectRatio="xMidYMid meet" version="1.0"><defs><g/><clipPath id="94d1ce3ad5"><path d="M 215.6875 601 L 1284 601 L 1284 894 L 215.6875 894 Z M 215.6875 601 " clip-rule="nonzero"/></clipPath><clipPath id="fb398b586c"><rect x="0" width="952" y="0" height="187"/></clipPath><clipPath id="46686ea113"><path d="M 625.777344 805.777344 L 657.972656 805.777344 L 657.972656 837.972656 L 625.777344 837.972656 Z M 625.777344 805.777344 " clip-rule="nonzero"/></clipPath><clipPath id="fcc3a592de"><path d="M 641.875 805.777344 C 632.984375 805.777344 625.777344 812.984375 625.777344 821.875 C 625.777344 830.765625 632.984375 837.972656 641.875 837.972656 C 650.765625 837.972656 657.972656 830.765625 657.972656 821.875 C 657.972656 812.984375 650.765625 805.777344 641.875 805.777344 Z M 641.875 805.777344 " clip-rule="nonzero"/></clipPath><clipPath id="8970040b58"><path d="M 0.777344 0.777344 L 32.972656 0.777344 L 32.972656 32.972656 L 0.777344 32.972656 Z M 0.777344 0.777344 " clip-rule="nonzero"/></clipPath><clipPath id="d4be0072af"><path d="M 16.875 0.777344 C 7.984375 0.777344 0.777344 7.984375 0.777344 16.875 C 0.777344 25.765625 7.984375 32.972656 16.875 32.972656 C 25.765625 32.972656 32.972656 25.765625 32.972656 16.875 C 32.972656 7.984375 25.765625 0.777344 16.875 0.777344 Z M 16.875 0.777344 " clip-rule="nonzero"/></clipPath><clipPath id="45f67f03b5"><rect x="0" width="33" y="0" height="33"/></clipPath></defs><g clip-path="url(#94d1ce3ad5)"><path fill="#33bd66" d="M 1281.847656 804.476562 C 1280.757812 808.5 1272.148438 831.265625 1270.214844 836.160156 L 1235.890625 836.160156 C 1236.257812 835.464844 1236.566406 834.8125 1236.824219 834.222656 C 1239.726562 827.476562 1248.941406 803.636719 1250.261719 799.042969 C 1251.441406 794.949219 1251.921875 791.640625 1251.648438 788.703125 C 1251.253906 785.515625 1250.253906 782.527344 1248.648438 779.746094 C 1245.992188 775.0625 1243.035156 770.582031 1239.769531 766.296875 C 1227.160156 749.050781 1229.183594 732.03125 1230.976562 716.964844 L 1230.976562 716.953125 C 1232.039062 708.003906 1232.953125 700.371094 1228.144531 698.601562 C 1218.257812 694.96875 1201.039062 695.324219 1180.519531 695.746094 L 1180.375 695.773438 L 1180.375 695.75 C 1163.210938 696.105469 1144.015625 696.496094 1123.394531 694.742188 C 1102.511719 692.96875 1080.351562 689 1057.742188 680.621094 C 1030.835938 670.648438 1007.386719 662.113281 985.65625 655.082031 C 914.429688 632.023438 857.328125 626.703125 781.347656 630.757812 C 725.386719 633.734375 666.332031 666.742188 619.472656 693.027344 C 834.960938 675.488281 1002.894531 695.121094 1002.894531 695.121094 C 827.859375 694.949219 691.320312 707.171875 587.039062 723.542969 C 568.183594 725.332031 515.398438 731.820312 504.707031 732.621094 C 492.363281 733.546875 479.066406 734.1875 465.449219 734.839844 C 398.761719 738.035156 339.234375 742.53125 279.695312 773.886719 C 261.324219 783.816406 253.804688 788.511719 260.347656 799.238281 C 261.203125 800.507812 262.195312 801.65625 263.328125 802.683594 C 264.425781 803.800781 265.269531 804.582031 266.125 805.375 L 266.140625 805.363281 C 268.621094 807.660156 271.011719 805.144531 270.726562 825.382812 C 270.808594 828.996094 270.214844 832.492188 268.953125 835.878906 C 267.675781 838.691406 265.839844 841.074219 263.449219 843.03125 L 263.464844 843.042969 C 257.0625 849.988281 247.246094 854.921875 247.246094 854.921875 L 267.097656 893.914062 C 255.972656 894.070312 244.230469 893.992188 239.84375 892.800781 L 235.566406 891.640625 L 215.703125 852.761719 L 219.726562 850.628906 C 224.285156 848.363281 228.53125 845.621094 232.46875 842.398438 L 232.457031 842.382812 C 234.847656 840.429688 236.683594 838.046875 237.957031 835.234375 C 239.222656 831.847656 239.816406 828.347656 239.734375 824.738281 C 239.679688 819.128906 239.261719 813.550781 238.480469 808 C 237.449219 806.824219 236.339844 805.726562 235.148438 804.714844 L 235.136719 804.726562 C 234.277344 803.933594 233.433594 803.152344 232.335938 802.035156 C 231.269531 800.949219 230.277344 799.800781 229.355469 798.585938 C 224.296875 791.910156 222.167969 784.992188 227.582031 776.203125 C 231.886719 769.222656 241.652344 761.230469 260.230469 751.191406 L 261.847656 750.324219 L 261.898438 750.324219 C 296.726562 731.761719 331.476562 721.585938 365.335938 715.671875 C 399.441406 709.71875 432.460938 708.128906 463.746094 706.628906 C 476.488281 706.019531 488.929688 705.421875 501.554688 704.480469 C 513.632812 703.578125 525.300781 702.375 536.4375 700.5625 C 550.328125 698.300781 573.644531 685.238281 601.367188 669.691406 C 601.441406 669.609375 601.527344 669.558594 601.636719 669.539062 C 651.695312 641.457031 714.945312 605.980469 779.441406 602.542969 C 859.671875 598.273438 921.035156 604.136719 996.28125 628.433594 C 1018.898438 635.738281 1042.835938 644.441406 1070.203125 654.585938 C 1109.054688 668.984375 1148.132812 668.191406 1179.703125 667.539062 L 1179.941406 667.511719 L 1179.941406 667.535156 C 1204.109375 667.039062 1224.390625 666.628906 1240.550781 672.566406 C 1253.9375 677.484375 1260.15625 684.75 1262.742188 693.59375 C 1265.109375 701.6875 1264.082031 710.421875 1262.953125 719.847656 C 1262.296875 725.347656 1261.597656 731.21875 1261.996094 736.738281 C 1262.097656 739.300781 1262.558594 741.796875 1263.378906 744.230469 C 1264.199219 746.660156 1265.34375 748.925781 1266.816406 751.027344 C 1271.839844 757.894531 1275.707031 763.695312 1278.53125 769.285156 C 1281.394531 774.683594 1283.132812 780.421875 1283.75 786.5 C 1284.21875 792.609375 1283.585938 798.601562 1281.847656 804.476562 Z M 1281.847656 804.476562 " fill-opacity="1" fill-rule="evenodd"/></g><g transform="matrix(1, 0, 0, 1, 273, 712)"><g clip-path="url(#fb398b586c)"><g fill="#ffffff" fill-opacity="1"><g transform="translate(0.879821, 148.914226)"><g><path d="M 46.875 -77.640625 C 59.195312 -77.640625 68.585938 -74.582031 75.046875 -68.46875 C 81.503906 -62.351562 84.734375 -54.21875 84.734375 -44.0625 L 84.734375 0 L 68.46875 0 L 65.21875 -7.390625 L 64.46875 -7.390625 C 62.007812 -4.929688 58.5625 -2.710938 54.125 -0.734375 C 49.6875 1.234375 44.113281 2.21875 37.40625 2.21875 C 31.101562 2.21875 25.609375 1.179688 20.921875 -0.890625 C 16.242188 -2.960938 12.644531 -5.796875 10.125 -9.390625 C 7.613281 -12.984375 6.359375 -16.953125 6.359375 -21.296875 C 6.359375 -26.128906 7.738281 -30.414062 10.5 -34.15625 C 13.257812 -37.90625 17.328125 -40.835938 22.703125 -42.953125 C 28.078125 -45.078125 34.554688 -46.140625 42.140625 -46.140625 L 63.296875 -46.140625 L 63.296875 -46.734375 C 63.296875 -50.273438 61.914062 -53.203125 59.15625 -55.515625 C 56.394531 -57.835938 52.398438 -59 47.171875 -59 C 43.035156 -59 39.78125 -58.457031 37.40625 -57.375 C 35.039062 -56.289062 33.21875 -54.664062 31.9375 -52.5 L 10.5 -52.5 C 11.976562 -60.28125 15.894531 -66.414062 22.25 -70.90625 C 28.613281 -75.394531 36.820312 -77.640625 46.875 -77.640625 Z M 41.703125 -14.9375 C 48.503906 -14.9375 53.800781 -16.363281 57.59375 -19.21875 C 61.394531 -22.082031 63.296875 -25.484375 63.296875 -29.421875 L 63.296875 -31.796875 L 42 -31.796875 C 37.070312 -31.796875 33.472656 -31.03125 31.203125 -29.5 C 28.929688 -27.96875 27.796875 -25.921875 27.796875 -23.359375 C 27.796875 -20.796875 28.878906 -18.75 31.046875 -17.21875 C 33.222656 -15.695312 36.773438 -14.9375 41.703125 -14.9375 Z M 41.703125 -14.9375 "/></g></g></g><g fill="#ffffff" fill-opacity="1"><g transform="translate(85.603346, 148.914226)"><g><path d="M 74.53125 -39.484375 C 78.269531 -38.296875 81.375 -36.175781 83.84375 -33.125 C 86.3125 -30.070312 87.546875 -26.273438 87.546875 -21.734375 C 87.546875 -17.691406 86.484375 -14.019531 84.359375 -10.71875 C 82.242188 -7.414062 79.285156 -4.800781 75.484375 -2.875 C 71.691406 -0.957031 67.332031 0 62.40625 0 L 10.640625 0 L 10.640625 -75.421875 L 59.296875 -75.421875 C 64.128906 -75.421875 68.414062 -74.503906 72.15625 -72.671875 C 75.90625 -70.847656 78.816406 -68.359375 80.890625 -65.203125 C 82.960938 -62.054688 84 -58.609375 84 -54.859375 C 84 -51.210938 83.082031 -48.054688 81.25 -45.390625 C 79.425781 -42.734375 77.1875 -40.765625 74.53125 -39.484375 Z M 31.34375 -59.15625 L 31.34375 -45.84375 L 55.15625 -45.84375 C 57.625 -45.84375 59.597656 -46.457031 61.078125 -47.6875 C 62.554688 -48.914062 63.296875 -50.519531 63.296875 -52.5 C 63.296875 -54.46875 62.554688 -56.066406 61.078125 -57.296875 C 59.597656 -58.535156 57.625 -59.15625 55.15625 -59.15625 Z M 58.109375 -16.265625 C 60.867188 -16.265625 63.015625 -16.90625 64.546875 -18.1875 C 66.078125 -19.46875 66.84375 -21.289062 66.84375 -23.65625 C 66.84375 -26.019531 66.078125 -27.84375 64.546875 -29.125 C 63.015625 -30.40625 60.867188 -31.046875 58.109375 -31.046875 L 31.34375 -31.046875 L 31.34375 -16.265625 Z M 58.109375 -16.265625 "/></g></g></g><g fill="#ffffff" fill-opacity="1"><g transform="translate(167.221631, 148.914226)"><g><path d="M 52.046875 0 L 30.609375 0 L 30.609375 -55.453125 L 3.84375 -55.453125 L 3.84375 -75.421875 L 78.8125 -75.421875 L 78.8125 -55.453125 L 52.046875 -55.453125 Z M 52.046875 0 "/></g></g></g><g fill="#ffffff" fill-opacity="1"><g transform="translate(236.271641, 148.914226)"><g><path d="M 50.71875 2.21875 C 42.34375 2.21875 34.753906 0.421875 27.953125 -3.171875 C 21.148438 -6.773438 15.820312 -11.628906 11.96875 -17.734375 C 8.125 -23.847656 6.203125 -30.503906 6.203125 -37.703125 C 6.203125 -44.898438 8.125 -51.554688 11.96875 -57.671875 C 15.820312 -63.785156 21.148438 -68.640625 27.953125 -72.234375 C 34.753906 -75.835938 42.34375 -77.640625 50.71875 -77.640625 C 59.101562 -77.640625 66.695312 -75.835938 73.5 -72.234375 C 80.300781 -68.640625 85.625 -63.785156 89.46875 -57.671875 C 93.3125 -51.554688 95.234375 -44.898438 95.234375 -37.703125 C 95.234375 -30.503906 93.3125 -23.847656 89.46875 -17.734375 C 85.625 -11.628906 80.300781 -6.773438 73.5 -3.171875 C 66.695312 0.421875 59.101562 2.21875 50.71875 2.21875 Z M 50.71875 -17.15625 C 57.625 -17.15625 63.195312 -19.097656 67.4375 -22.984375 C 71.675781 -26.878906 73.796875 -31.785156 73.796875 -37.703125 C 73.796875 -43.617188 71.675781 -48.523438 67.4375 -52.421875 C 63.195312 -56.316406 57.625 -58.265625 50.71875 -58.265625 C 43.820312 -58.265625 38.253906 -56.316406 34.015625 -52.421875 C 29.773438 -48.523438 27.65625 -43.617188 27.65625 -37.703125 C 27.65625 -31.785156 29.773438 -26.878906 34.015625 -22.984375 C 38.253906 -19.097656 43.820312 -17.15625 50.71875 -17.15625 Z M 50.71875 -17.15625 "/></g></g></g><g fill="#ffffff" fill-opacity="1"><g transform="translate(327.804371, 148.914226)"><g/></g></g><g fill="#ffffff" fill-opacity="1"><g transform="translate(362.255225, 148.914226)"><g/></g></g><g fill="#ffffff" fill-opacity="1"><g transform="translate(396.713198, 148.914226)"><g><path d="M 31.34375 -27.359375 L 73.5 -75.421875 L 92.28125 -75.421875 L 92.28125 0 L 71.578125 0 L 71.578125 -48.0625 L 29.421875 0 L 10.640625 0 L 10.640625 -75.421875 L 31.34375 -75.421875 Z M 31.34375 -27.359375 "/></g></g></g><g fill="#ffffff" fill-opacity="1"><g transform="translate(489.716924, 148.914226)"><g><path d="M 59.15625 -26.171875 L 86.65625 -75.421875 L 107.796875 -75.421875 L 107.796875 0 L 87.09375 0 L 87.09375 -39.03125 L 64.46875 0 L 54.125 0 L 31.34375 -39.1875 L 31.34375 0 L 10.640625 0 L 10.640625 -75.421875 L 31.640625 -75.421875 Z M 59.15625 -26.171875 "/></g></g></g><g fill="#ffffff" fill-opacity="1"><g transform="translate(598.246025, 148.914226)"><g><path d="M 32.09375 0 L 10.640625 0 L 10.640625 -75.421875 L 90.0625 -75.421875 L 90.0625 0 L 68.609375 0 L 68.609375 -55.453125 L 32.09375 -55.453125 Z M 32.09375 0 "/></g></g></g><g fill="#ffffff" fill-opacity="1"><g transform="translate(689.031846, 148.914226)"><g><path d="M 50.71875 2.21875 C 42.34375 2.21875 34.753906 0.421875 27.953125 -3.171875 C 21.148438 -6.773438 15.820312 -11.628906 11.96875 -17.734375 C 8.125 -23.847656 6.203125 -30.503906 6.203125 -37.703125 C 6.203125 -44.898438 8.125 -51.554688 11.96875 -57.671875 C 15.820312 -63.785156 21.148438 -68.640625 27.953125 -72.234375 C 34.753906 -75.835938 42.34375 -77.640625 50.71875 -77.640625 C 59.101562 -77.640625 66.695312 -75.835938 73.5 -72.234375 C 80.300781 -68.640625 85.625 -63.785156 89.46875 -57.671875 C 93.3125 -51.554688 95.234375 -44.898438 95.234375 -37.703125 C 95.234375 -30.503906 93.3125 -23.847656 89.46875 -17.734375 C 85.625 -11.628906 80.300781 -6.773438 73.5 -3.171875 C 66.695312 0.421875 59.101562 2.21875 50.71875 2.21875 Z M 50.71875 -17.15625 C 57.625 -17.15625 63.195312 -19.097656 67.4375 -22.984375 C 71.675781 -26.878906 73.796875 -31.785156 73.796875 -37.703125 C 73.796875 -43.617188 71.675781 -48.523438 67.4375 -52.421875 C 63.195312 -56.316406 57.625 -58.265625 50.71875 -58.265625 C 43.820312 -58.265625 38.253906 -56.316406 34.015625 -52.421875 C 29.773438 -48.523438 27.65625 -43.617188 27.65625 -37.703125 C 27.65625 -31.785156 29.773438 -26.878906 34.015625 -22.984375 C 38.253906 -19.097656 43.820312 -17.15625 50.71875 -17.15625 Z M 50.71875 -17.15625 "/></g></g></g><g fill="#ffffff" fill-opacity="1"><g transform="translate(780.556965, 148.914226)"><g><path d="M 10.640625 26.625 L 10.640625 -75.421875 L 26.90625 -75.421875 L 30.171875 -68.015625 L 30.90625 -68.015625 C 37.800781 -74.429688 46.578125 -77.640625 57.234375 -77.640625 C 64.617188 -77.640625 71.367188 -75.910156 77.484375 -72.453125 C 83.597656 -69.003906 88.425781 -64.25 91.96875 -58.1875 C 95.519531 -52.125 97.296875 -45.296875 97.296875 -37.703125 C 97.296875 -30.117188 95.519531 -23.296875 91.96875 -17.234375 C 88.425781 -11.171875 83.597656 -6.410156 77.484375 -2.953125 C 71.367188 0.492188 64.617188 2.21875 57.234375 2.21875 C 51.410156 2.21875 46.476562 1.332031 42.4375 -0.4375 C 38.394531 -2.21875 35.191406 -4.238281 32.828125 -6.5 L 32.09375 -6.5 L 32.09375 26.625 Z M 53.96875 -17.15625 C 60.1875 -17.15625 65.390625 -19.097656 69.578125 -22.984375 C 73.765625 -26.878906 75.859375 -31.785156 75.859375 -37.703125 C 75.859375 -43.617188 73.765625 -48.523438 69.578125 -52.421875 C 65.390625 -56.316406 60.1875 -58.265625 53.96875 -58.265625 C 47.757812 -58.265625 42.5625 -56.316406 38.375 -52.421875 C 34.1875 -48.523438 32.09375 -43.617188 32.09375 -37.703125 C 32.09375 -31.785156 34.1875 -26.878906 38.375 -22.984375 C 42.5625 -19.097656 47.757812 -17.15625 53.96875 -17.15625 Z M 53.96875 -17.15625 "/></g></g></g><g fill="#ffffff" fill-opacity="1"><g transform="translate(870.45537, 148.914226)"><g><path d="M 52.046875 0 L 30.609375 0 L 30.609375 -55.453125 L 3.84375 -55.453125 L 3.84375 -75.421875 L 78.8125 -75.421875 L 78.8125 -55.453125 L 52.046875 -55.453125 Z M 52.046875 0 "/></g></g></g></g></g><g clip-path="url(#46686ea113)"><g clip-path="url(#fcc3a592de)"><g transform="matrix(1, 0, 0, 1, 625, 805)"><g clip-path="url(#45f67f03b5)"><g clip-path="url(#8970040b58)"><g clip-path="url(#d4be0072af)"><path fill="#33bd66" d="M 0.777344 0.777344 L 32.972656 0.777344 L 32.972656 32.972656 L 0.777344 32.972656 Z M 0.777344 0.777344 " fill-opacity="1" fill-rule="nonzero"/></g></g></g></g></g></g></svg>